<svg width="721" height="319" viewBox="0 0 721 319" fill="none" xmlns="http://www.w3.org/2000/svg">
<g clip-path="url(#clip0_445_2392)">
<g clip-path="url(#clip1_445_2392)">
<path fill-rule="evenodd" clip-rule="evenodd" d="M354.235 31.1363C347.675 35.3057 341.17 39.4752 334.498 43.6446C335.11 44.3672 335.554 45.2011 336.055 46.035C342.726 41.8656 349.232 37.6962 355.792 33.5268C355.292 32.6373 354.847 31.8034 354.235 31.1363ZM238.813 31.2475C238.313 32.0814 237.868 32.8041 237.368 33.638C244.039 37.8074 250.544 41.9768 257.105 46.0906C257.605 45.2567 258.161 44.4228 258.662 43.7001C251.99 39.5307 245.485 35.4169 238.813 31.2475ZM328.716 8.28802C324.546 15.4038 320.265 22.6864 316.095 29.9133C316.929 30.3581 317.652 30.8584 318.486 31.3587C322.655 24.1317 326.825 16.8492 331.106 9.62223C330.217 9.1219 329.383 8.67716 328.716 8.28802ZM264.277 8.06565C263.554 8.51039 262.72 9.01071 261.886 9.51104C266.056 16.738 270.226 24.0206 274.396 31.1363C275.23 30.636 276.064 30.1913 276.787 29.691C272.561 22.464 268.447 15.2926 264.277 8.06565ZM323.601 41.0873C320.765 45.5903 318.486 49.1482 315.65 53.3176H331.718C328.604 48.7034 326.325 45.2567 323.601 41.0873ZM295.523 29.8021H296.969V0.227173H295.523V29.8021ZM269.114 41.0873C266.168 45.7015 263.888 49.037 261.164 53.0952H276.954C274.118 48.8146 271.894 45.2567 269.114 41.0873ZM303.14 38.3633C306.143 42.7551 308.478 46.313 311.369 50.4824C314.205 46.2018 316.484 42.6439 319.32 38.3633H303.14ZM273.562 38.2521C276.286 42.5327 278.677 46.2018 281.513 50.5936C284.348 46.2018 286.739 42.5327 289.63 38.2521H273.562ZM296.024 38.5857C292.799 43.8113 290.297 48.2031 287.35 53.0952H304.808C301.695 47.9807 299.082 43.7001 296.024 38.5857ZM285.071 59.6551C287.795 66.6597 289.852 73.3307 292.688 79.6126C294.689 83.8932 298.526 83.4485 300.305 79.5014C303.029 73.3307 304.92 66.6597 307.422 59.6551H285.071ZM644.904 76.2771V84.1156C648.462 84.7271 651.798 85.283 655.023 86.0057C667.477 88.5073 670.59 92.3988 670.59 105.018C670.59 135.205 671.091 165.391 670.479 195.578C670.257 206.362 669.033 217.481 665.976 227.765C660.749 244.888 637.064 250.614 623.776 238.328C622.108 236.66 621.274 232.268 622.22 229.878C624.499 224.43 628.391 219.649 630.671 214.201C635.063 204.194 631.616 195.3 622.942 192.186C612.824 188.406 603.928 193.132 600.481 203.972C595.755 219.204 602.983 237.716 617.216 246.778C630.17 254.839 644.348 255.561 658.692 252.115C681.376 246.555 696.944 226.32 697.111 202.193C697.444 168.671 697.222 135.038 697.222 101.516C697.333 90.8422 699.946 87.729 710.399 85.8389C713.957 85.1162 717.515 84.5047 721.352 83.9488V76.2215H644.904V76.2771ZM530.927 83.0593C532.817 85.0606 534.875 85.5609 536.987 85.8945C547.217 87.8958 553.5 94.3445 555.057 104.796C555.668 109.188 556.002 113.579 556.002 117.971C556.113 145.767 556.113 173.619 556.113 201.526C556.113 203.305 555.891 205.195 555.613 208.531C553.611 205.918 552.388 204.472 551.332 203.194C521.142 164.668 490.952 126.31 460.984 87.6734C457.871 83.8932 454.813 82.1142 449.809 82.2254C437.911 82.559 425.902 82.3366 413.892 82.4478C412.447 82.4478 411.057 83.0593 409.611 83.3929C411.78 85.1718 413.781 85.5609 415.783 85.8945C425.513 87.6734 431.573 93.3994 433.519 103.128C434.353 107.631 434.686 112.412 434.686 117.026C434.797 149.603 434.797 182.069 434.797 214.59C434.686 218.982 434.297 223.374 433.63 227.765C432.184 237.994 425.902 243.831 416.061 245.944C413.892 246.389 411.78 247 409.5 247.501C409.723 248.112 409.889 248.668 410.001 249.28H465.377C465.488 248.668 465.599 248.112 465.599 247.389C463.709 247.056 461.818 246.555 459.872 246.222C447.863 243.72 442.025 237.438 440.746 224.93C440.413 220.761 440.024 216.591 440.024 212.478C439.913 179.178 440.024 145.934 440.024 112.634C440.024 110.744 440.246 108.798 440.524 105.518C444.583 110.522 447.641 114.302 450.643 118.138C484.169 160.332 517.695 202.415 551.332 244.499C553.5 247.111 556.669 248.668 561.228 252.115V240.718C561.228 198.024 561.117 155.385 561.451 112.69C561.562 94.956 567.177 88.7853 583.801 85.3386C584.635 85.2274 585.358 84.5047 587.471 83.0593H530.927ZM313.815 78.6675C316.428 75.4432 318.93 72.608 321.432 69.606C323.823 66.6597 326.158 63.6577 329.883 59.2659C324.879 59.2659 321.71 59.0435 318.708 59.3771C316.317 59.7106 312.87 60.3222 312.147 61.8787C309.312 68.2718 307.144 75.1652 304.642 82.3366C323.656 85.4498 335.665 96.457 343.171 112.19C348.064 122.196 352.067 132.87 354.235 143.599C359.962 173.786 357.46 202.916 337.834 228.21C314.761 258.063 276.954 257.674 254.381 227.487C231.919 197.19 231.919 163.39 242.038 129.201C248.821 106.13 261.553 87.1175 287.684 82.1142C278.399 54.9853 283.292 58.8212 263.554 60.2666C269.003 66.6597 274.007 72.7192 279.622 79.5014C255.159 86.0613 235.422 98.2915 221.244 118.471C206.844 139.04 203.175 161.889 208.401 186.238C216.852 225.82 254.158 254.45 296.246 254.005C339.168 253.56 376.697 222.262 385.148 181.402C392.543 146.045 373.639 95.4007 313.815 78.6675ZM166.535 126.421C151.301 96.8461 125.504 83.2817 92.7005 82.6702C63.9561 82.1142 35.045 82.4478 6.18939 82.4478C4.63264 82.4478 3.24268 83.0593 0.351562 83.6152C25.204 92.1764 27.0944 94.9004 27.0944 120.584C27.0944 152.438 27.2056 184.07 27.0944 215.924C26.9832 237.105 23.0357 241.83 2.4643 247.056C2.13071 247.167 1.85272 247.779 0.573956 249.446C3.90986 249.557 6.1338 249.78 8.41333 249.78C34.4334 249.78 60.4534 249.891 86.5291 249.669C96.1476 249.669 105.766 249.057 115.273 248.112C136.29 246 154.137 237.55 165.09 218.759C182.714 188.629 182.381 157.108 166.535 126.421ZM132.175 223.652C118.832 242.331 97.204 250.503 75.2426 245.277C63.3445 242.553 56.8395 235.382 55.1716 223.262C54.838 220.983 54.3376 218.648 54.3376 216.369V87.2287C103.931 78.1672 143.74 109.799 147.521 160.555C149.188 183.236 145.741 204.639 132.175 223.652Z" fill="black"/>
<path fill-rule="evenodd" clip-rule="evenodd" d="M166.535 126.421C151.301 96.8462 125.504 83.2818 92.7005 82.6702C63.9561 82.1143 35.045 82.4479 6.18939 82.4479C4.63264 82.4479 3.24268 83.0594 0.351562 83.6153C25.204 92.1765 27.0944 94.9005 27.0944 120.584C27.0944 152.438 27.2056 184.07 27.0944 215.924C26.9832 237.105 23.0357 241.83 2.4643 247.056C2.13071 247.167 1.85272 247.779 0.573956 249.446C3.90986 249.558 6.1338 249.78 8.41333 249.78C34.4334 249.78 60.4534 249.891 86.5291 249.669C96.1476 249.669 105.766 249.057 115.273 248.112C136.29 246 154.137 237.55 165.09 218.76C182.714 188.629 182.381 157.108 166.535 126.421ZM132.175 223.652C118.832 242.331 97.204 250.503 75.2426 245.277C63.3445 242.553 56.8395 235.382 55.1716 223.262C54.838 220.983 54.3376 218.648 54.3376 216.369V87.2288C103.931 78.1673 143.74 109.799 147.521 160.555C149.188 183.236 145.741 204.639 132.175 223.652Z" fill="black"/>
<path fill-rule="evenodd" clip-rule="evenodd" d="M329.828 59.3216C326.214 63.7133 323.823 66.6597 321.377 69.6061C318.93 72.5525 316.428 75.4433 313.76 78.612C373.639 95.3452 392.431 146.045 385.148 181.346C376.697 222.262 339.168 253.449 296.191 253.949C254.047 254.394 216.796 225.82 208.234 186.183C203.008 161.889 206.733 139.041 221.077 118.527C235.199 98.2916 254.992 86.0613 279.511 79.5571C273.896 72.7748 268.836 66.7153 263.443 60.2666C283.181 58.8768 278.288 55.041 287.573 82.2255C261.386 87.1732 248.71 106.13 241.927 129.256C231.863 163.501 231.808 197.301 254.325 227.543C276.842 257.785 314.649 258.119 337.778 228.266C357.349 202.971 359.962 173.841 354.18 143.71C352.123 132.925 347.953 122.252 343.171 112.301C335.61 96.6238 323.601 85.5054 304.586 82.5034C307.144 75.3321 309.201 68.4943 312.147 62.0456C312.815 60.489 316.317 59.8775 318.652 59.5995C321.71 59.0436 324.879 59.3216 329.828 59.3216Z" fill="black"/>
<path fill-rule="evenodd" clip-rule="evenodd" d="M465.432 249.335H410.056C409.889 248.779 409.723 248.223 409.611 247.612C411.78 247.111 413.892 246.556 416.061 246.055C425.957 243.832 432.295 238.106 433.741 227.821C434.353 223.485 434.797 219.038 434.853 214.646C434.909 182.124 434.964 149.603 434.853 117.082C434.853 112.412 434.464 107.742 433.574 103.128C431.739 93.3439 425.624 87.6735 415.894 85.8946C413.948 85.561 411.946 85.1719 409.778 83.4485C411.224 83.0594 412.614 82.4479 414.059 82.3923C426.013 82.2811 438.022 82.6146 449.976 82.2255C454.98 82.0587 458.038 83.7821 461.04 87.6735C491.063 126.254 521.308 164.668 551.498 203.194C552.61 204.584 553.722 205.973 555.78 208.586C556.002 205.251 556.224 203.361 556.224 201.47C556.224 173.619 556.169 145.823 556.057 117.971C556.057 113.524 555.724 109.132 555.112 104.74C553.667 94.3446 547.329 87.8959 537.098 85.8946C534.986 85.5054 532.929 85.0607 530.983 83.0038H587.637C585.413 84.3936 584.746 85.1163 583.968 85.2275C567.288 88.6186 561.673 94.8449 561.562 112.579C561.228 155.218 561.395 197.913 561.339 240.552C561.339 243.387 561.339 246.222 561.339 251.948C556.836 248.557 553.556 246.945 551.498 244.332C517.75 202.415 484.224 160.277 450.699 118.138C447.641 114.302 444.583 110.522 440.58 105.574C440.357 108.854 440.079 110.744 440.079 112.69C440.079 145.99 440.024 179.289 440.079 212.589C440.079 216.758 440.413 220.928 440.858 225.041C442.136 237.494 447.919 243.832 459.983 246.278C461.874 246.667 463.82 247.111 465.71 247.501C465.599 248.112 465.488 248.724 465.432 249.335Z" fill="black"/>
<path fill-rule="evenodd" clip-rule="evenodd" d="M644.904 84.1156V76.2771H721.408V84.0044C717.516 84.6715 713.958 85.2274 710.455 85.8945C699.947 87.8402 697.334 90.8978 697.334 101.627C697.278 135.205 697.5 168.782 697.222 202.304C697 226.431 681.432 246.611 658.748 252.17C644.46 255.673 630.226 254.894 617.328 246.833C602.983 237.883 595.811 219.315 600.592 204.139C603.984 193.298 612.88 188.573 622.999 192.298C631.672 195.466 635.063 204.306 630.782 214.312C628.447 219.76 624.5 224.541 622.276 230.045C621.386 232.324 622.109 236.827 623.833 238.439C637.065 250.669 660.75 245.055 665.976 227.877C669.09 217.592 670.313 206.474 670.535 195.689C671.091 165.502 670.758 135.316 670.702 105.129C670.702 92.5656 667.533 88.6185 655.079 86.0613C651.743 85.283 648.463 84.7827 644.904 84.1156Z" fill="black"/>
<path fill-rule="evenodd" clip-rule="evenodd" d="M285.127 59.5995H307.422C304.92 66.6041 303.03 73.2751 300.194 79.5014C298.415 83.3929 294.634 83.8932 292.633 79.6126C289.797 73.3307 287.74 66.6597 285.127 59.5995Z" fill="black"/>
<path fill-rule="evenodd" clip-rule="evenodd" d="M304.808 53.0952H287.295C290.242 48.1475 292.799 43.8669 295.968 38.5857C299.137 43.7002 301.695 47.9808 304.808 53.0952Z" fill="black"/>
<path fill-rule="evenodd" clip-rule="evenodd" d="M281.457 50.5936C278.622 46.1463 276.287 42.5328 273.562 38.2522H289.575C286.739 42.5884 284.293 46.2574 281.457 50.5936Z" fill="black"/>
<path fill-rule="evenodd" clip-rule="evenodd" d="M319.264 38.4189C316.429 42.6995 314.149 46.2018 311.314 50.538C308.422 46.313 306.087 42.8107 303.085 38.4189H319.264Z" fill="black"/>
<path fill-rule="evenodd" clip-rule="evenodd" d="M261.22 53.1508C263.888 49.0926 266.168 45.7015 269.17 41.1429C271.839 45.3123 274.119 48.8146 276.898 53.1508H261.22Z" fill="black"/>
<path fill-rule="evenodd" clip-rule="evenodd" d="M294.689 29.7466V0.171631C295.635 0.171631 296.58 0.171631 297.525 0.171631V29.8578C296.58 29.8022 295.635 29.8022 294.689 29.7466Z" fill="black"/>
<path fill-rule="evenodd" clip-rule="evenodd" d="M331.663 53.3732H315.65C318.43 49.1482 320.71 45.6459 323.601 41.1429C326.325 45.2568 328.605 48.7035 331.663 53.3732Z" fill="black"/>
<path fill-rule="evenodd" clip-rule="evenodd" d="M274.396 31.1364C270.227 23.9094 266.112 16.6824 261.942 9.45547C262.721 9.01074 263.499 8.51041 264.278 8.06567C268.447 15.2926 272.617 22.464 276.843 29.691C276.009 30.1913 275.175 30.6916 274.396 31.1364Z" fill="black"/>
<path fill-rule="evenodd" clip-rule="evenodd" d="M331.051 9.56663C326.881 16.7936 322.655 24.0761 318.485 31.3031C317.707 30.8584 316.929 30.4136 316.095 29.9689C320.32 22.7419 324.49 15.4594 328.716 8.23242C329.438 8.67716 330.272 9.12189 331.051 9.56663Z" fill="black"/>
<path fill-rule="evenodd" clip-rule="evenodd" d="M238.868 31.192C245.485 35.3614 252.045 39.4752 258.661 43.6446C258.161 44.4229 257.661 45.2568 257.16 46.0351C250.6 41.8657 244.039 37.7519 237.479 33.5825C237.923 32.8042 238.368 32.0259 238.868 31.192Z" fill="black"/>
<path fill-rule="evenodd" clip-rule="evenodd" d="M355.848 33.4157C349.287 37.5851 342.727 41.7545 336.11 45.9239C335.61 45.1456 335.054 44.3117 334.554 43.5334C341.114 39.364 347.731 35.2502 354.291 31.0808C354.792 31.8591 355.348 32.6374 355.848 33.4157Z" fill="black"/>
</g>
<path d="M43.0461 290.296H41.1396C40.6278 288.756 39.8025 287.106 38.6635 285.346C37.541 283.586 36.501 282.638 35.5436 282.503C35.0154 282.435 34.3633 282.376 33.5875 282.325C32.8117 282.275 32.1431 282.249 31.5819 282.249H30.4181V310.502C30.4181 311.111 30.5254 311.652 30.74 312.126C30.9546 312.583 31.3755 312.947 32.0028 313.218C32.3825 313.37 32.9685 313.531 33.7608 313.7C34.5697 313.852 35.2547 313.962 35.816 314.03V316.01H16.2302V314.03C16.7089 313.979 17.3774 313.912 18.2358 313.827C19.1107 313.725 19.7049 313.607 20.0186 313.472C20.6624 313.201 21.0915 312.837 21.3061 312.38C21.5207 311.923 21.628 311.382 21.628 310.756V282.249H20.4643C19.903 282.249 19.2345 282.275 18.4586 282.325C17.6828 282.376 17.0308 282.435 16.5025 282.503C15.5451 282.638 14.4969 283.586 13.3579 285.346C12.2354 287.106 11.4183 288.756 10.9066 290.296H9V279.99H43.0461V290.296Z" fill="black"/>
<path d="M87.9871 316.01H68.9955V314.03C69.4082 313.996 70.0107 313.945 70.803 313.878C71.5954 313.81 72.1401 313.709 72.4373 313.573C73.048 313.319 73.469 312.989 73.7001 312.583C73.9312 312.16 74.0467 311.627 74.0467 310.984V298.571H59.0416V310.705C59.0416 311.28 59.1572 311.796 59.3883 312.253C59.6359 312.71 60.0486 313.065 60.6263 313.319C60.94 313.455 61.4765 313.599 62.2358 313.751C62.9951 313.903 63.6141 313.996 64.0929 314.03V316.01H45.1013V314.03C45.514 314.013 46.1165 313.962 46.9088 313.878C47.7177 313.776 48.3037 313.658 48.6669 313.522C49.2611 313.302 49.6738 312.972 49.9049 312.532C50.136 312.075 50.2515 311.542 50.2515 310.933V285.448C50.2515 284.855 50.1442 284.356 49.9297 283.95C49.7316 283.544 49.3106 283.188 48.6669 282.884C48.1881 282.664 47.5609 282.469 46.785 282.3C46.0092 282.114 45.4479 282.004 45.1013 281.97V279.99H64.0929V281.97C63.5811 282.004 62.9704 282.088 62.2606 282.224C61.5507 282.359 61.006 282.486 60.6263 282.605C59.9826 282.825 59.5534 283.18 59.3388 283.671C59.1407 284.145 59.0416 284.652 59.0416 285.194V295.957H74.0467V285.448C74.0467 284.855 73.9394 284.356 73.7248 283.95C73.5102 283.544 73.081 283.188 72.4373 282.884C72.0081 282.681 71.4303 282.495 70.704 282.325C69.9942 282.139 69.4247 282.021 68.9955 281.97V279.99H87.9871V281.97C87.4588 282.004 86.8646 282.08 86.2043 282.198C85.544 282.3 84.9497 282.435 84.4215 282.605C83.7942 282.825 83.3733 283.171 83.1587 283.645C82.9441 284.119 82.8368 284.635 82.8368 285.194V310.705C82.8368 311.314 82.9441 311.83 83.1587 312.253C83.3733 312.676 83.7942 313.032 84.4215 313.319C84.8177 313.489 85.3872 313.641 86.13 313.776C86.8893 313.912 87.5083 313.996 87.9871 314.03V316.01Z" fill="black"/>
<path d="M122.553 289.179H120.671C120.193 287.808 119.367 286.421 118.195 285.016C117.023 283.611 115.86 282.782 114.704 282.528C114.209 282.41 113.515 282.342 112.624 282.325C111.749 282.291 111.023 282.275 110.445 282.275H105.344V296.185H108.959C109.867 296.185 110.693 296.075 111.436 295.855C112.178 295.635 112.855 295.212 113.466 294.586C113.846 294.197 114.225 293.511 114.605 292.53C115.001 291.548 115.257 290.694 115.373 289.966H117.254V304.993H115.373C115.273 304.283 115.018 303.394 114.605 302.328C114.209 301.245 113.829 300.5 113.466 300.094C112.921 299.485 112.277 299.07 111.535 298.85C110.792 298.613 109.933 298.495 108.959 298.495H105.344V308.877C105.344 309.96 105.419 310.823 105.567 311.466C105.732 312.092 106.029 312.575 106.459 312.913C106.871 313.235 107.433 313.446 108.142 313.548C108.869 313.649 109.851 313.7 111.089 313.7C111.667 313.7 112.36 313.692 113.169 313.675C113.978 313.658 114.687 313.607 115.298 313.522C115.992 313.438 116.635 313.311 117.23 313.142C117.84 312.972 118.294 312.727 118.591 312.405C119.384 311.576 120.275 310.316 121.266 308.623C122.256 306.914 122.908 305.636 123.222 304.79H125.029L124.361 316.01H91.4041V314.03C91.8663 313.996 92.4935 313.929 93.2859 313.827C94.0782 313.725 94.6395 313.607 94.9696 313.472C95.5969 313.201 96.0178 312.862 96.2324 312.456C96.447 312.033 96.5543 311.5 96.5543 310.857V285.448C96.5543 284.838 96.4635 284.339 96.2819 283.95C96.1004 283.544 95.6629 283.18 94.9696 282.858C94.5404 282.655 93.9379 282.469 93.1621 282.3C92.3862 282.131 91.8002 282.021 91.4041 281.97V279.99H122.553V289.179Z" fill="black"/>
<path d="M172.521 283.696C174.666 285.134 176.4 287.055 177.72 289.458C179.041 291.844 179.701 294.772 179.701 298.241C179.701 301.287 179.107 303.944 177.918 306.212C176.746 308.462 175.186 310.307 173.239 311.745C171.258 313.184 169.005 314.259 166.479 314.969C163.97 315.663 161.337 316.01 158.58 316.01H140.876V314.03C141.404 314.013 142.065 313.962 142.857 313.878C143.649 313.793 144.178 313.692 144.442 313.573C145.036 313.319 145.449 312.981 145.68 312.558C145.911 312.118 146.026 311.593 146.026 310.984V285.448C146.026 284.872 145.919 284.356 145.705 283.899C145.49 283.425 145.069 283.045 144.442 282.757C143.814 282.469 143.146 282.275 142.436 282.173C141.743 282.071 141.206 282.004 140.827 281.97V279.99H159.521C161.518 279.99 163.656 280.252 165.934 280.777C168.212 281.301 170.408 282.275 172.521 283.696ZM167.469 309.512C168.278 308.158 168.864 306.55 169.227 304.689C169.607 302.81 169.797 300.653 169.797 298.216C169.797 295.83 169.549 293.655 169.054 291.692C168.559 289.729 167.832 288.054 166.875 286.666C165.918 285.278 164.721 284.204 163.285 283.442C161.865 282.681 160.247 282.3 158.432 282.3C157.854 282.3 157.194 282.317 156.451 282.351C155.724 282.368 155.18 282.385 154.817 282.401V309.74C154.817 310.349 154.891 310.891 155.039 311.365C155.204 311.822 155.477 312.228 155.857 312.583C156.236 312.939 156.698 313.218 157.243 313.421C157.804 313.607 158.531 313.7 159.422 313.7C161.287 313.7 162.889 313.345 164.226 312.634C165.563 311.923 166.644 310.882 167.469 309.512Z" fill="black"/>
<path d="M215.629 284.001C217.362 285.625 218.733 287.588 219.739 289.89C220.763 292.191 221.275 294.814 221.275 297.759C221.275 300.382 220.845 302.878 219.987 305.247C219.129 307.616 217.891 309.656 216.273 311.365C214.573 313.142 212.575 314.529 210.281 315.528C207.986 316.509 205.254 317 202.085 317C199.526 317 197.108 316.568 194.83 315.705C192.552 314.842 190.546 313.59 188.813 311.949C187.096 310.341 185.735 308.386 184.728 306.085C183.721 303.783 183.217 301.22 183.217 298.393C183.217 295.449 183.704 292.784 184.678 290.397C185.669 287.994 187.022 285.938 188.739 284.229C190.439 282.554 192.453 281.268 194.781 280.371C197.125 279.457 199.617 279 202.258 279C204.883 279 207.343 279.44 209.637 280.32C211.948 281.2 213.945 282.427 215.629 284.001ZM209.266 309.766C210.008 308.226 210.545 306.483 210.875 304.536C211.205 302.59 211.37 300.39 211.37 297.937C211.37 295.855 211.222 293.833 210.925 291.87C210.644 289.89 210.157 288.13 209.464 286.59C208.754 285.05 207.813 283.815 206.641 282.884C205.469 281.953 204.008 281.488 202.258 281.488C199.271 281.488 197.001 282.943 195.449 285.854C193.897 288.747 193.122 292.843 193.122 298.14C193.122 300.39 193.287 302.514 193.617 304.511C193.963 306.508 194.5 308.251 195.226 309.74C195.969 311.246 196.91 312.422 198.049 313.269C199.188 314.098 200.591 314.512 202.258 314.512C203.893 314.512 205.296 314.089 206.468 313.243C207.64 312.397 208.572 311.238 209.266 309.766Z" fill="black"/>
<path d="M265.126 281.97C264.664 282.021 264.004 282.114 263.145 282.249C262.287 282.385 261.511 282.715 260.818 283.239C260.207 283.696 259.769 284.483 259.505 285.6C259.258 286.7 259.134 288.324 259.134 290.474V316.213H254.727L232.838 288.367V305.273C232.838 307.371 232.97 308.97 233.234 310.07C233.515 311.153 233.96 311.949 234.571 312.456C235.017 312.829 235.727 313.159 236.701 313.446C237.675 313.734 238.45 313.929 239.028 314.03V316.01H223.924V314.03C224.568 313.979 225.302 313.861 226.128 313.675C226.97 313.472 227.671 313.167 228.232 312.761C228.876 312.27 229.314 311.534 229.545 310.552C229.792 309.554 229.916 307.887 229.916 305.552V288.494C229.916 287.648 229.784 286.852 229.52 286.108C229.272 285.346 228.876 284.695 228.331 284.153C227.754 283.578 227.085 283.129 226.326 282.808C225.583 282.469 224.733 282.207 223.775 282.021V279.99H236.998L256.212 304.359V290.727C256.212 288.561 256.072 286.954 255.791 285.904C255.511 284.838 255.065 284.051 254.454 283.544C253.975 283.155 253.266 282.825 252.325 282.554C251.384 282.266 250.624 282.071 250.047 281.97V279.99H265.126V281.97Z" fill="black"/>
<path d="M312.692 284.001C314.425 285.625 315.795 287.588 316.802 289.89C317.825 292.191 318.337 294.814 318.337 297.759C318.337 300.382 317.908 302.878 317.05 305.247C316.191 307.616 314.953 309.656 313.335 311.365C311.635 313.142 309.638 314.529 307.343 315.528C305.049 316.509 302.317 317 299.147 317C296.589 317 294.171 316.568 291.893 315.705C289.615 314.842 287.609 313.59 285.876 311.949C284.159 310.341 282.797 308.386 281.79 306.085C280.783 303.783 280.28 301.22 280.28 298.393C280.28 295.449 280.767 292.784 281.741 290.397C282.731 287.994 284.085 285.938 285.801 284.229C287.502 282.554 289.515 281.268 291.843 280.371C294.187 279.457 296.68 279 299.321 279C301.945 279 304.405 279.44 306.699 280.32C309.01 281.2 311.008 282.427 312.692 284.001ZM306.328 309.766C307.071 308.226 307.607 306.483 307.938 304.536C308.268 302.59 308.433 300.39 308.433 297.937C308.433 295.855 308.284 293.833 307.987 291.87C307.706 289.89 307.219 288.13 306.526 286.59C305.816 285.05 304.875 283.815 303.703 282.884C302.531 281.953 301.071 281.488 299.321 281.488C296.333 281.488 294.063 282.943 292.512 285.854C290.96 288.747 290.184 292.843 290.184 298.14C290.184 300.39 290.349 302.514 290.679 304.511C291.026 306.508 291.562 308.251 292.289 309.74C293.032 311.246 293.972 312.422 295.111 313.269C296.25 314.098 297.654 314.512 299.321 314.512C300.955 314.512 302.358 314.089 303.53 313.243C304.702 312.397 305.635 311.238 306.328 309.766Z" fill="black"/>
<path d="M353.398 289.611H351.492C351.013 288.206 350.163 286.717 348.941 285.143C347.736 283.552 346.589 282.681 345.5 282.528C345.005 282.461 344.344 282.401 343.519 282.351C342.694 282.3 341.934 282.275 341.241 282.275H335.769V296.413H339.26C340.25 296.413 341.109 296.303 341.835 296.083C342.561 295.847 343.205 295.432 343.766 294.84C344.179 294.417 344.575 293.714 344.955 292.733C345.351 291.734 345.591 290.88 345.673 290.169H347.555V305.323H345.673C345.607 304.562 345.351 303.64 344.905 302.556C344.46 301.456 344.08 300.729 343.766 300.373C343.288 299.832 342.677 299.434 341.934 299.18C341.191 298.91 340.3 298.774 339.26 298.774H335.769V310.705C335.769 311.314 335.876 311.839 336.091 312.279C336.322 312.702 336.751 313.049 337.378 313.319C337.741 313.472 338.237 313.615 338.864 313.751C339.508 313.869 340.143 313.962 340.77 314.03V316.01H321.828V314.03C322.307 313.979 322.943 313.912 323.735 313.827C324.527 313.725 325.08 313.607 325.394 313.472C325.988 313.235 326.401 312.905 326.632 312.482C326.863 312.059 326.979 311.517 326.979 310.857V285.448C326.979 284.872 326.871 284.373 326.657 283.95C326.459 283.51 326.038 283.146 325.394 282.858C324.932 282.655 324.321 282.469 323.562 282.3C322.802 282.131 322.225 282.021 321.828 281.97V279.99H353.398V289.611Z" fill="black"/>
<path d="M395.938 281.97C395.277 282.055 394.716 282.139 394.254 282.224C393.792 282.308 393.272 282.427 392.694 282.579C392.017 282.765 391.58 283.095 391.382 283.569C391.2 284.043 391.109 284.585 391.109 285.194V305.044C391.109 306.872 390.746 308.547 390.02 310.07C389.31 311.593 388.328 312.871 387.073 313.903C385.802 314.919 384.383 315.68 382.814 316.188C381.246 316.712 379.571 316.975 377.788 316.975C374.701 316.975 372.208 316.213 370.31 314.69C368.428 313.167 367.487 311.077 367.487 308.42C367.487 306.846 367.917 305.543 368.775 304.511C369.65 303.479 370.847 302.963 372.365 302.963C373.801 302.963 374.94 303.394 375.782 304.257C376.641 305.12 377.07 306.186 377.07 307.456C377.07 308.539 376.698 309.546 375.956 310.476C375.229 311.39 374.396 312.236 373.455 313.015V313.345C373.603 313.683 373.925 313.971 374.42 314.208C374.916 314.445 375.419 314.563 375.931 314.563C377.912 314.563 379.463 313.835 380.586 312.38C381.725 310.925 382.294 308.725 382.294 305.78V285.448C382.294 284.838 382.204 284.331 382.022 283.925C381.84 283.518 381.403 283.163 380.71 282.858C380.214 282.638 379.612 282.452 378.902 282.3C378.209 282.148 377.631 282.038 377.169 281.97V279.99H395.938V281.97Z" fill="black"/>
<path d="M430.132 289.179H428.25C427.772 287.808 426.946 286.421 425.774 285.016C424.602 283.611 423.439 282.782 422.283 282.528C421.788 282.41 421.095 282.342 420.203 282.325C419.328 282.291 418.602 282.275 418.024 282.275H412.923V296.185H416.539C417.446 296.185 418.272 296.075 419.015 295.855C419.757 295.635 420.434 295.212 421.045 294.586C421.425 294.197 421.804 293.511 422.184 292.53C422.58 291.548 422.836 290.694 422.952 289.966H424.833V304.993H422.952C422.853 304.283 422.597 303.394 422.184 302.328C421.788 301.245 421.408 300.5 421.045 300.094C420.5 299.485 419.857 299.07 419.114 298.85C418.371 298.613 417.512 298.495 416.539 298.495H412.923V308.877C412.923 309.96 412.998 310.823 413.146 311.466C413.311 312.092 413.609 312.575 414.038 312.913C414.45 313.235 415.012 313.446 415.721 313.548C416.448 313.649 417.43 313.7 418.668 313.7C419.246 313.7 419.939 313.692 420.748 313.675C421.557 313.658 422.267 313.607 422.877 313.522C423.571 313.438 424.214 313.311 424.809 313.142C425.419 312.972 425.873 312.727 426.171 312.405C426.963 311.576 427.854 310.316 428.845 308.623C429.835 306.914 430.487 305.636 430.801 304.79H432.608L431.94 316.01H398.983V314.03C399.445 313.996 400.073 313.929 400.865 313.827C401.657 313.725 402.219 313.607 402.549 313.472C403.176 313.201 403.597 312.862 403.811 312.456C404.026 312.033 404.133 311.5 404.133 310.857V285.448C404.133 284.838 404.043 284.339 403.861 283.95C403.679 283.544 403.242 283.18 402.549 282.858C402.119 282.655 401.517 282.469 400.741 282.3C399.965 282.131 399.379 282.021 398.983 281.97V279.99H430.132V289.179Z" fill="black"/>
<path d="M491.935 282.021C491.424 282.071 490.912 282.19 490.4 282.376C489.888 282.545 489.385 282.765 488.89 283.036C488.13 283.476 487.586 283.958 487.255 284.483C486.942 285.008 486.653 285.642 486.389 286.387C485.481 288.959 484.078 293.08 482.179 298.749C480.298 304.418 478.333 310.307 476.286 316.416H471.309L462.024 289.636L453.655 316.416H448.678C445.921 308.192 443.808 301.863 442.339 297.429C440.87 292.978 439.632 289.247 438.625 286.234C438.312 285.321 437.957 284.661 437.56 284.255C437.164 283.831 436.653 283.408 436.025 282.985C435.58 282.681 435.101 282.461 434.589 282.325C434.094 282.173 433.516 282.055 432.856 281.97V279.99H451.6V281.919C450.494 282.055 449.669 282.19 449.124 282.325C448.579 282.444 448.15 282.571 447.836 282.706C447.539 282.841 447.358 282.985 447.291 283.138C447.225 283.29 447.192 283.425 447.192 283.544C447.192 283.781 447.217 284.009 447.267 284.229C447.333 284.449 447.399 284.703 447.465 284.991C447.861 286.311 448.662 288.815 449.867 292.504C451.072 296.193 452.557 300.771 454.324 306.237L462.321 279.99H467.571L476.856 307.049C478.226 302.7 479.316 299.147 480.124 296.388C480.95 293.63 481.643 291.269 482.204 289.306C482.534 288.104 482.799 287.098 482.997 286.285C483.195 285.473 483.294 284.771 483.294 284.178C483.294 283.823 483.129 283.518 482.799 283.265C482.485 283.011 482.056 282.791 481.511 282.605C481.049 282.452 480.446 282.334 479.703 282.249C478.977 282.148 478.342 282.071 477.797 282.021V279.99H491.935V282.021Z" fill="black"/>
<path d="M523.877 289.179H521.995C521.516 287.808 520.691 286.421 519.519 285.016C518.347 283.611 517.183 282.782 516.028 282.528C515.532 282.41 514.839 282.342 513.948 282.325C513.073 282.291 512.346 282.275 511.769 282.275H506.668V296.185H510.283C511.191 296.185 512.016 296.075 512.759 295.855C513.502 295.635 514.179 295.212 514.79 294.586C515.169 294.197 515.549 293.511 515.929 292.53C516.325 291.548 516.581 290.694 516.696 289.966H518.578V304.993H516.696C516.597 304.283 516.341 303.394 515.929 302.328C515.532 301.245 515.153 300.5 514.79 300.094C514.245 299.485 513.601 299.07 512.858 298.85C512.115 298.613 511.257 298.495 510.283 298.495H506.668V308.877C506.668 309.96 506.742 310.823 506.891 311.466C507.056 312.092 507.353 312.575 507.782 312.913C508.195 313.235 508.756 313.446 509.466 313.548C510.192 313.649 511.174 313.7 512.413 313.7C512.99 313.7 513.684 313.692 514.492 313.675C515.301 313.658 516.011 313.607 516.622 313.522C517.315 313.438 517.959 313.311 518.553 313.142C519.164 312.972 519.618 312.727 519.915 312.405C520.707 311.576 521.599 310.316 522.589 308.623C523.58 306.914 524.232 305.636 524.545 304.79H526.353L525.684 316.01H492.728V314.03C493.19 313.996 493.817 313.929 494.609 313.827C495.402 313.725 495.963 313.607 496.293 313.472C496.92 313.201 497.341 312.862 497.556 312.456C497.771 312.033 497.878 311.5 497.878 310.857V285.448C497.878 284.838 497.787 284.339 497.606 283.95C497.424 283.544 496.986 283.18 496.293 282.858C495.864 282.655 495.261 282.469 494.486 282.3C493.71 282.131 493.124 282.021 492.728 281.97V279.99H523.877V289.179Z" fill="black"/>
<path d="M562.38 304.46L561.687 316.01H529.324V314.03C529.902 313.979 530.579 313.903 531.355 313.802C532.13 313.683 532.642 313.573 532.89 313.472C533.484 313.235 533.897 312.905 534.128 312.482C534.359 312.059 534.474 311.517 534.474 310.857V285.448C534.474 284.838 534.384 284.339 534.202 283.95C534.02 283.544 533.583 283.18 532.89 282.858C532.378 282.621 531.759 282.435 531.033 282.3C530.323 282.148 529.753 282.038 529.324 281.97V279.99H548.613V281.97C548.085 282.021 547.457 282.097 546.731 282.198C546.021 282.283 545.402 282.41 544.874 282.579C544.23 282.799 543.801 283.146 543.586 283.62C543.372 284.077 543.265 284.601 543.265 285.194V308.877C543.265 309.994 543.339 310.874 543.487 311.517C543.636 312.16 543.925 312.634 544.354 312.939C544.783 313.26 545.377 313.472 546.137 313.573C546.913 313.658 547.977 313.7 549.331 313.7C550.651 313.7 551.931 313.624 553.169 313.472C554.423 313.302 555.323 312.947 555.868 312.405C556.71 311.542 557.568 310.332 558.443 308.776C559.334 307.202 560.044 305.763 560.572 304.46H562.38Z" fill="black"/>
<path d="M597.144 304.46L596.451 316.01H564.088V314.03C564.666 313.979 565.343 313.903 566.119 313.802C566.895 313.683 567.406 313.573 567.654 313.472C568.248 313.235 568.661 312.905 568.892 312.482C569.123 312.059 569.239 311.517 569.239 310.857V285.448C569.239 284.838 569.148 284.339 568.966 283.95C568.785 283.544 568.347 283.18 567.654 282.858C567.142 282.621 566.523 282.435 565.797 282.3C565.087 282.148 564.518 282.038 564.088 281.97V279.99H583.377V281.97C582.849 282.021 582.222 282.097 581.495 282.198C580.785 282.283 580.166 282.41 579.638 282.579C578.994 282.799 578.565 283.146 578.351 283.62C578.136 284.077 578.029 284.601 578.029 285.194V308.877C578.029 309.994 578.103 310.874 578.252 311.517C578.4 312.16 578.689 312.634 579.118 312.939C579.547 313.26 580.142 313.472 580.901 313.573C581.677 313.658 582.742 313.7 584.095 313.7C585.416 313.7 586.695 313.624 587.933 313.472C589.188 313.302 590.087 312.947 590.632 312.405C591.474 311.542 592.332 310.332 593.207 308.776C594.098 307.202 594.808 305.763 595.337 304.46H597.144Z" fill="black"/>
<path d="M630.002 289.179H628.12C627.641 287.808 626.816 286.421 625.644 285.016C624.472 283.611 623.308 282.782 622.153 282.528C621.657 282.41 620.964 282.342 620.073 282.325C619.198 282.291 618.471 282.275 617.894 282.275H612.793V296.185H616.408C617.316 296.185 618.141 296.075 618.884 295.855C619.627 295.635 620.304 295.212 620.914 294.586C621.294 294.197 621.674 293.511 622.053 292.53C622.45 291.548 622.706 290.694 622.821 289.966H624.703V304.993H622.821C622.722 304.283 622.466 303.394 622.053 302.328C621.657 301.245 621.278 300.5 620.914 300.094C620.37 299.485 619.726 299.07 618.983 298.85C618.24 298.613 617.382 298.495 616.408 298.495H612.793V308.877C612.793 309.96 612.867 310.823 613.016 311.466C613.181 312.092 613.478 312.575 613.907 312.913C614.32 313.235 614.881 313.446 615.591 313.548C616.317 313.649 617.299 313.7 618.537 313.7C619.115 313.7 619.808 313.692 620.617 313.675C621.426 313.658 622.136 313.607 622.747 313.522C623.44 313.438 624.084 313.311 624.678 313.142C625.289 312.972 625.743 312.727 626.04 312.405C626.832 311.576 627.724 310.316 628.714 308.623C629.705 306.914 630.357 305.636 630.67 304.79H632.478L631.809 316.01H598.853V314.03C599.315 313.996 599.942 313.929 600.734 313.827C601.527 313.725 602.088 313.607 602.418 313.472C603.045 313.201 603.466 312.862 603.681 312.456C603.896 312.033 604.003 311.5 604.003 310.857V285.448C604.003 284.838 603.912 284.339 603.73 283.95C603.549 283.544 603.111 283.18 602.418 282.858C601.989 282.655 601.386 282.469 600.611 282.3C599.835 282.131 599.249 282.021 598.853 281.97V279.99H630.002V289.179Z" fill="black"/>
<path d="M675.784 316.01H662.315C659.987 312.355 658.047 309.444 656.496 307.278C654.961 305.112 653.046 302.607 650.751 299.764H649.389V310.705C649.389 311.314 649.497 311.83 649.711 312.253C649.942 312.676 650.372 313.032 650.999 313.319C651.313 313.455 651.799 313.599 652.46 313.751C653.137 313.886 653.714 313.979 654.193 314.03V316.01H635.449V314.03C635.928 313.979 636.555 313.912 637.331 313.827C638.123 313.725 638.684 313.607 639.015 313.472C639.642 313.201 640.063 312.862 640.277 312.456C640.492 312.033 640.599 311.5 640.599 310.857V285.448C640.599 284.838 640.509 284.331 640.327 283.925C640.145 283.518 639.708 283.163 639.015 282.858C638.486 282.638 637.859 282.452 637.133 282.3C636.423 282.148 635.862 282.038 635.449 281.97V279.99H655.159C659.566 279.99 662.909 280.701 665.187 282.122C667.481 283.527 668.629 285.659 668.629 288.519C668.629 291.041 667.919 293.071 666.499 294.611C665.096 296.134 662.95 297.327 660.061 298.19C661.184 299.68 662.488 301.406 663.974 303.369C665.476 305.332 667.036 307.337 668.653 309.385C669.165 310.045 669.858 310.857 670.733 311.822C671.625 312.769 672.409 313.353 673.086 313.573C673.465 313.692 673.944 313.793 674.522 313.878C675.116 313.962 675.537 314.013 675.784 314.03V316.01ZM658.922 289.23C658.922 286.827 658.262 285.075 656.941 283.975C655.637 282.858 653.772 282.3 651.346 282.3H649.389V297.378H651.271C653.698 297.378 655.58 296.727 656.917 295.424C658.254 294.12 658.922 292.056 658.922 289.23Z" fill="black"/>
<path d="M713 281.97C712.406 282.038 711.861 282.148 711.366 282.3C710.871 282.452 710.4 282.664 709.954 282.935C709.245 283.341 708.609 283.865 708.048 284.508C707.503 285.134 706.967 285.837 706.438 286.615C705.365 288.223 704.235 289.974 703.046 291.87C701.874 293.748 700.595 295.821 699.208 298.089C698.3 299.527 697.739 300.636 697.524 301.414C697.326 302.176 697.227 303.504 697.227 305.399V310.502C697.227 311.111 697.335 311.644 697.549 312.101C697.78 312.558 698.21 312.93 698.837 313.218C699.117 313.336 699.712 313.497 700.62 313.7C701.527 313.886 702.196 313.996 702.625 314.03V316.01H683.039V314.03C683.502 313.996 684.162 313.929 685.02 313.827C685.895 313.725 686.506 313.607 686.853 313.472C687.463 313.201 687.876 312.845 688.091 312.405C688.322 311.949 688.437 311.399 688.437 310.756V304.409C688.437 303.851 688.429 303.36 688.412 302.937C688.396 302.514 688.338 302.159 688.239 301.871C688.124 301.55 687.926 301.143 687.645 300.653C687.364 300.145 687.001 299.493 686.555 298.698C685.284 296.413 684.055 294.247 682.866 292.2C681.678 290.152 680.547 288.231 679.474 286.438C678.913 285.507 678.343 284.762 677.765 284.204C677.204 283.628 676.626 283.163 676.032 282.808C675.586 282.554 675.042 282.359 674.398 282.224C673.771 282.088 673.201 282.004 672.689 281.97V279.99H692.82V281.97C690.971 282.021 689.725 282.156 689.081 282.376C688.437 282.579 688.115 282.867 688.115 283.239C688.115 283.425 688.231 283.798 688.462 284.356C688.71 284.914 689.139 285.778 689.75 286.945C690.311 288.045 691.128 289.56 692.201 291.489C693.29 293.418 694.594 295.677 696.113 298.267C699.249 293.173 701.404 289.619 702.576 287.605C703.748 285.574 704.334 284.331 704.334 283.874C704.334 283.298 703.987 282.858 703.294 282.554C702.617 282.249 701.511 282.055 699.976 281.97V279.99H713V281.97Z" fill="black"/>
</g>
<defs>
<clipPath id="clip0_445_2392">

</clipPath>
<clipPath id="clip1_445_2392">

</clipPath>
</defs>
</svg>
